<svg xmlns="http://www.w3.org/2000/svg" xmlns:xlink="http://www.w3.org/1999/xlink" width="2000" zoomAndPan="magnify" viewBox="0 0 1500 1499.999933" height="2000" preserveAspectRatio="xMidYMid meet" version="1.0"><defs><clipPath id="9acba3fedf"><path d="M 118.417969 118.417969 L 1349.917969 118.417969 L 1349.917969 1349.917969 L 118.417969 1349.917969 Z M 118.417969 118.417969 " clip-rule="nonzero"/></clipPath></defs><g clip-path="url(#9acba3fedf)"><path fill="#131111" d="M 639.125 1286.046875 C 656.503906 1313.882812 636.496094 1349.988281 603.660156 1349.988281 L 160.234375 1349.988281 C 137.144531 1349.988281 118.417969 1331.261719 118.417969 1308.171875 L 118.417969 598.65625 C 118.417969 556.648438 173.445312 540.871094 195.699219 576.464844 Z M 1308.171875 118.417969 L 287.414062 118.417969 C 254.574219 118.417969 234.566406 154.527344 251.945312 182.359375 L 651.566406 821.777344 C 670.292969 851.792969 715.507812 846.40625 726.667969 812.863281 L 883.796875 341.542969 C 889.503906 324.480469 905.472656 312.9375 923.433594 312.9375 L 1105.765625 312.9375 C 1134.304688 312.9375 1154.445312 340.902344 1145.402344 367.964844 L 836.402344 1294.960938 C 827.359375 1322.027344 847.496094 1349.988281 876.035156 1349.988281 L 1308.109375 1349.988281 C 1331.199219 1349.988281 1349.925781 1331.261719 1349.925781 1308.171875 L 1349.925781 160.234375 C 1349.988281 137.144531 1331.261719 118.417969 1308.171875 118.417969 Z M 1308.171875 118.417969 " fill-opacity="1" fill-rule="nonzero"/></g></svg>