<svg xmlns="http://www.w3.org/2000/svg" xmlns:xlink="http://www.w3.org/1999/xlink" width="2000" zoomAndPan="magnify" viewBox="0 0 1500 1499.999933" height="2000" preserveAspectRatio="xMidYMid meet" version="1.0"><defs><g/><clipPath id="0a708e685d"><path d="M 55.367188 549.167969 L 383.867188 549.167969 L 383.867188 877.667969 L 55.367188 877.667969 Z M 55.367188 549.167969 " clip-rule="nonzero"/></clipPath><clipPath id="d93e079097"><rect x="0" width="952" y="0" height="338"/></clipPath><clipPath id="edbef9313d"><rect x="0" width="335" y="0" height="335"/></clipPath></defs><g clip-path="url(#0a708e685d)"><path fill="#ffffff" d="M 194.222656 860.53125 C 198.855469 867.957031 193.519531 877.585938 184.765625 877.585938 L 66.519531 877.585938 C 60.363281 877.585938 55.367188 872.589844 55.367188 866.433594 L 55.367188 677.230469 C 55.367188 666.027344 70.042969 661.820312 75.976562 671.3125 Z M 372.632812 549.167969 L 100.433594 549.167969 C 91.675781 549.167969 86.339844 558.792969 90.976562 566.21875 L 197.539062 736.726562 C 202.535156 744.730469 214.589844 743.296875 217.566406 734.351562 L 259.46875 608.664062 C 260.988281 604.117188 265.25 601.039062 270.035156 601.039062 L 318.660156 601.039062 C 326.269531 601.039062 331.640625 608.496094 329.230469 615.710938 L 246.828125 862.910156 C 244.417969 870.128906 249.789062 877.585938 257.398438 877.585938 L 372.617188 877.585938 C 378.773438 877.585938 383.769531 872.589844 383.769531 866.433594 L 383.769531 560.316406 C 383.785156 554.160156 378.792969 549.167969 372.632812 549.167969 Z M 372.632812 549.167969 " fill-opacity="1" fill-rule="nonzero"/></g><g transform="matrix(1, 0, 0, 1, 514, 620)"><g clip-path="url(#d93e079097)"><g fill="#ffffff" fill-opacity="1"><g transform="translate(0.534208, 242.40609)"><g><path d="M 16.171875 0 L 16.171875 -138.21875 L 63.859375 -138.21875 L 63.859375 -118.28125 L 64.390625 -118.28125 C 64.753906 -119 65.335938 -119.894531 66.140625 -120.96875 C 66.953125 -122.050781 68.703125 -123.9375 71.390625 -126.625 C 74.085938 -129.320312 76.960938 -131.75 80.015625 -133.90625 C 83.078125 -136.0625 87.03125 -137.992188 91.875 -139.703125 C 96.726562 -141.410156 101.671875 -142.265625 106.703125 -142.265625 C 111.910156 -142.265625 117.023438 -141.546875 122.046875 -140.109375 C 127.078125 -138.671875 130.765625 -137.234375 133.109375 -135.796875 L 136.875 -133.640625 L 116.9375 -93.21875 C 111.007812 -98.25 102.742188 -100.765625 92.140625 -100.765625 C 86.398438 -100.765625 81.460938 -99.503906 77.328125 -96.984375 C 73.191406 -94.472656 70.269531 -91.421875 68.5625 -87.828125 C 66.863281 -84.242188 65.65625 -81.191406 64.9375 -78.671875 C 64.21875 -76.160156 63.859375 -74.1875 63.859375 -72.75 L 63.859375 0 Z M 16.171875 0 "/></g></g></g><g fill="#ffffff" fill-opacity="1"><g transform="translate(134.716153, 242.40609)"><g><path d="M 20.734375 -215.28125 C 26.304688 -220.851562 32.953125 -223.640625 40.671875 -223.640625 C 48.398438 -223.640625 55.046875 -220.851562 60.609375 -215.28125 C 66.179688 -209.707031 68.96875 -203.054688 68.96875 -195.328125 C 68.96875 -187.609375 66.179688 -180.960938 60.609375 -175.390625 C 55.046875 -169.828125 48.398438 -167.046875 40.671875 -167.046875 C 32.953125 -167.046875 26.304688 -169.828125 20.734375 -175.390625 C 15.171875 -180.960938 12.390625 -187.609375 12.390625 -195.328125 C 12.390625 -203.054688 15.171875 -209.707031 20.734375 -215.28125 Z M 16.171875 -138.21875 L 16.171875 0 L 63.859375 0 L 63.859375 -138.21875 Z M 16.171875 -138.21875 "/></g></g></g><g fill="#ffffff" fill-opacity="1"><g transform="translate(216.087541, 242.40609)"><g><path d="M 24.25 -138.21875 L 24.25 -167.59375 C 24.425781 -188.25 29.273438 -204.773438 38.796875 -217.171875 C 48.316406 -229.566406 61.519531 -235.765625 78.40625 -235.765625 C 85.59375 -235.765625 92.460938 -234.726562 99.015625 -232.65625 C 105.578125 -230.59375 110.289062 -228.484375 113.15625 -226.328125 L 117.75 -223.359375 L 101.046875 -189.6875 C 96.734375 -192.195312 91.972656 -193.453125 86.765625 -193.453125 C 80.835938 -193.453125 76.882812 -191.429688 74.90625 -187.390625 C 72.925781 -183.347656 71.9375 -176.300781 71.9375 -166.25 L 71.9375 -138.21875 L 103.734375 -138.21875 L 103.734375 -101.84375 L 71.9375 -101.84375 L 71.9375 0 L 24.25 0 L 24.25 -101.84375 L 4.3125 -101.84375 L 4.3125 -138.21875 Z M 24.25 -138.21875 "/></g></g></g><g fill="#ffffff" fill-opacity="1"><g transform="translate(317.128119, 242.40609)"><g><path d="M 29.234375 -16.421875 C 13.878906 -30.078125 6.203125 -47.59375 6.203125 -68.96875 C 6.203125 -90.351562 14.191406 -107.914062 30.171875 -121.65625 C 46.160156 -135.394531 65.921875 -142.265625 89.453125 -142.265625 C 112.617188 -142.265625 132.148438 -135.347656 148.046875 -121.515625 C 163.953125 -107.679688 171.90625 -90.164062 171.90625 -68.96875 C 171.90625 -47.78125 164.132812 -30.3125 148.59375 -16.5625 C 133.050781 -2.820312 113.335938 4.046875 89.453125 4.046875 C 64.660156 4.046875 44.585938 -2.773438 29.234375 -16.421875 Z M 66.140625 -92.40625 C 59.941406 -86.300781 56.84375 -78.488281 56.84375 -68.96875 C 56.84375 -59.457031 59.804688 -51.691406 65.734375 -45.671875 C 71.671875 -39.648438 79.488281 -36.640625 89.1875 -36.640625 C 98.519531 -36.640625 106.195312 -39.691406 112.21875 -45.796875 C 118.238281 -51.910156 121.25 -59.632812 121.25 -68.96875 C 121.25 -78.488281 118.148438 -86.300781 111.953125 -92.40625 C 105.753906 -98.519531 98.164062 -101.578125 89.1875 -101.578125 C 80.019531 -101.578125 72.335938 -98.519531 66.140625 -92.40625 Z M 66.140625 -92.40625 "/></g></g></g><g fill="#ffffff" fill-opacity="1"><g transform="translate(495.229057, 242.40609)"><g><path d="M 16.171875 0 L 16.171875 -138.21875 L 63.859375 -138.21875 L 63.859375 -123.671875 L 64.390625 -123.671875 C 76.785156 -136.066406 89.988281 -142.265625 104 -142.265625 C 110.820312 -142.265625 117.601562 -141.363281 124.34375 -139.5625 C 131.082031 -137.769531 137.550781 -134.988281 143.75 -131.21875 C 149.945312 -127.445312 154.972656 -122.101562 158.828125 -115.1875 C 162.691406 -108.269531 164.625 -100.226562 164.625 -91.0625 L 164.625 0 L 116.9375 0 L 116.9375 -78.140625 C 116.9375 -85.328125 114.644531 -91.613281 110.0625 -97 C 105.476562 -102.382812 99.503906 -105.078125 92.140625 -105.078125 C 84.960938 -105.078125 78.453125 -102.289062 72.609375 -96.71875 C 66.773438 -91.15625 63.859375 -84.960938 63.859375 -78.140625 L 63.859375 0 Z M 16.171875 0 "/></g></g></g><g fill="#ffffff" fill-opacity="1"><g transform="translate(673.329951, 242.40609)"><g><path d="M 25.59375 -17.109375 C 12.664062 -31.210938 6.203125 -48.5 6.203125 -68.96875 C 6.203125 -89.445312 12.664062 -106.78125 25.59375 -120.96875 C 38.53125 -135.164062 54.96875 -142.265625 74.90625 -142.265625 C 93.226562 -142.265625 108.316406 -136.515625 120.171875 -125.015625 L 120.171875 -231.71875 L 167.859375 -231.71875 L 167.859375 0 L 120.703125 0 L 120.703125 -15.625 L 120.171875 -15.625 C 108.316406 -2.507812 93.226562 4.046875 74.90625 4.046875 C 54.96875 4.046875 38.53125 -3.003906 25.59375 -17.109375 Z M 66.140625 -92.40625 C 59.941406 -86.300781 56.84375 -78.488281 56.84375 -68.96875 C 56.84375 -59.457031 59.804688 -51.691406 65.734375 -45.671875 C 71.671875 -39.648438 79.488281 -36.640625 89.1875 -36.640625 C 98.519531 -36.640625 106.195312 -39.691406 112.21875 -45.796875 C 118.238281 -51.910156 121.25 -59.632812 121.25 -68.96875 C 121.25 -78.488281 118.148438 -86.300781 111.953125 -92.40625 C 105.753906 -98.519531 98.164062 -101.578125 89.1875 -101.578125 C 80.019531 -101.578125 72.335938 -98.519531 66.140625 -92.40625 Z M 66.140625 -92.40625 "/></g></g></g><g fill="#ffffff" fill-opacity="1"><g transform="translate(857.358572, 242.40609)"><g><path d="M 46.875 -57.65625 C 55.5 -57.65625 62.820312 -54.644531 68.84375 -48.625 C 74.863281 -42.613281 77.875 -35.296875 77.875 -26.671875 C 77.875 -18.234375 74.863281 -11.003906 68.84375 -4.984375 C 62.820312 1.035156 55.5 4.046875 46.875 4.046875 C 38.4375 4.046875 31.207031 1.035156 25.1875 -4.984375 C 19.175781 -11.003906 16.171875 -18.234375 16.171875 -26.671875 C 16.171875 -35.296875 19.175781 -42.613281 25.1875 -48.625 C 31.207031 -54.644531 38.4375 -57.65625 46.875 -57.65625 Z M 46.875 -57.65625 "/></g></g></g></g></g><g transform="matrix(1, 0, 0, 1, 284, 621)"><g clip-path="url(#edbef9313d)"><g fill="#ffffff" fill-opacity="1"><g transform="translate(161.806194, 270.942371)"><g><path d="M 62.5 -146.09375 L -4.515625 -79.078125 C 1.972656 -72.585938 8.878906 -69.878906 16.203125 -70.953125 C 23.535156 -72.035156 29.664062 -75.039062 34.59375 -79.96875 C 39.757812 -85.132812 43.148438 -89.910156 44.765625 -94.296875 C 46.378906 -98.679688 47.066406 -104.835938 46.828125 -112.765625 L 81.421875 -124.296875 C 87.898438 -98.585938 79.972656 -74.566406 57.640625 -52.234375 C 43.710938 -38.304688 26.988281 -31.128906 7.46875 -30.703125 C -12.039062 -30.285156 -28.519531 -36.800781 -41.96875 -50.25 C -55.425781 -63.707031 -61.972656 -80.222656 -61.609375 -99.796875 C -61.242188 -119.367188 -54.097656 -136.117188 -40.171875 -150.046875 C -25.515625 -164.703125 -9.363281 -172.390625 8.28125 -173.109375 C 25.925781 -173.828125 42.617188 -166.316406 58.359375 -150.578125 C 60.515625 -148.421875 61.894531 -146.925781 62.5 -146.09375 Z M -21.25 -97.625 L 13.875 -132.75 C 8.351562 -136.832031 2.769531 -138.632812 -2.875 -138.15625 C -8.53125 -137.6875 -13.757812 -135.050781 -18.5625 -130.25 C -23.84375 -124.96875 -26.660156 -119.378906 -27.015625 -113.484375 C -27.378906 -107.597656 -25.457031 -102.3125 -21.25 -97.625 Z M -21.25 -97.625 "/></g></g></g></g></g></svg>